<?xml version="1.0" encoding="UTF-8"?>
<svg width="13px" height="14px" viewBox="0 0 13 14" version="1.1" xmlns="http://www.w3.org/2000/svg" xmlns:xlink="http://www.w3.org/1999/xlink">
    <!-- Generator: Sketch 52.2 (67145) - http://www.bohemiancoding.com/sketch -->
    <title>noun_User_2096537</title>
    <desc>Created with Sketch.</desc>
    <g id="Page-1" stroke="none" stroke-width="1" fill="none" fill-rule="evenodd">
        <g id="EventoDetailView" transform="translate(-402.000000, -245.000000)" fill="#000000">
            <g id="Group-5" transform="translate(200.000000, 242.000000)">
                <g id="Group-3" transform="translate(202.000000, 0.000000)">
                    <g id="noun_User_2096537" transform="translate(0.000000, 3.000000)">
                        <path d="M0,13.13 C0.00210907298,12.7935066 0.0290489063,12.4576278 0.0806,12.1251 C0.1599,11.6259 0.2587,10.9954 0.6188,10.4351 C0.9373,9.9346 1.326,9.6967 1.755,9.4328 C2.46824783,8.99158827 3.24976052,8.6717787 4.0677,8.4864 C4.28054846,8.40740286 4.48886639,8.31669776 4.6917,8.2147 C4.9517,8.0847 5.1597,7.6622 5.1259,7.3541 C5.11516667,7.31155042 5.09568609,7.27170378 5.0687,7.2371 C4.4434,6.279 4.1067,5.2 3.939,4.0521 C3.81588536,3.35426143 3.82426248,2.63956116 3.9637,1.9448 C4.1873,0.9425 4.8191,0.325 5.7603,0.1872 C6.28844958,0.0964198468 6.82940085,0.111888225 7.3515,0.2327 C8.2914,0.4732 8.8543,1.1557 8.9921,2.197 C9.1585,3.4528 8.944,4.6566 8.5241,5.8188 C8.3616,6.2686 8.1198,6.6846 7.9131,7.1188 C7.89300154,7.15116466 7.87643977,7.18559572 7.8637,7.2215 C7.8,7.5283 8.0054,8.06 8.2706,8.2017 C8.55827084,8.3445221 8.85385045,8.47082704 9.1559,8.58 C9.8872427,8.83893538 10.6018732,9.14284871 11.2957,9.49 C12.2525,9.9905 12.7257,10.8394 12.8843,11.934 C12.9402,12.324 12.961,12.714 13,13.1235 L0,13.13 Z" id="Path"></path>
                    </g>
                </g>
            </g>
        </g>
    </g>
</svg>