<?xml version="1.0" encoding="UTF-8"?>
<svg width="13px" height="13px" viewBox="0 0 13 13" version="1.1" xmlns="http://www.w3.org/2000/svg" xmlns:xlink="http://www.w3.org/1999/xlink">
    <!-- Generator: Sketch 52.2 (67145) - http://www.bohemiancoding.com/sketch -->
    <title>noun_Time_1161391</title>
    <desc>Created with Sketch.</desc>
    <g id="Page-1" stroke="none" stroke-width="1" fill="none" fill-rule="evenodd">
        <g id="EventoDetailView" transform="translate(-864.000000, -247.000000)" fill="#010101">
            <g id="noun_Time_1161391" transform="translate(864.000000, 247.000000)">
                <path d="M6.5,0 C2.91014913,-3.36627389e-16 3.36627389e-16,2.91014913 0,6.5 C-3.36627389e-16,10.0898509 2.91014913,13 6.5,13 C10.0898509,13 13,10.0898509 13,6.5 C12.9958229,2.91188076 10.0881192,0.004177093 6.5,0 Z M6.5,11.483965 C3.74743213,11.483965 1.51603499,9.25256787 1.51603499,6.5 C1.51603499,3.74743213 3.74743213,1.51603499 6.5,1.51603499 C9.25256787,1.51603499 11.483965,3.74743213 11.483965,6.5 C11.480832,9.25126911 9.25126911,11.480832 6.5,11.483965 Z" id="Shape" fill-rule="nonzero"></path>
                <path d="M9.23809524,5.54545455 L7.52380952,5.54545455 L7.52380952,3.72727273 C7.52380952,3.32561109 7.18269314,3 6.76190476,3 C6.34111638,3 6,3.32561109 6,3.72727273 L6,6.27272727 C6,6.67438891 6.34111638,7 6.76190476,7 L9.23809524,7 C9.65888362,7 10,6.67438891 10,6.27272727 C10,5.87106564 9.65888362,5.54545455 9.23809524,5.54545455 Z" id="Path"></path>
            </g>
        </g>
    </g>
</svg>