<?xml version="1.0" encoding="UTF-8"?>
<svg width="53px" height="50px" viewBox="0 0 53 50" version="1.1" xmlns="http://www.w3.org/2000/svg" xmlns:xlink="http://www.w3.org/1999/xlink">
    <!-- Generator: Sketch 52.2 (67145) - http://www.bohemiancoding.com/sketch -->
    <title>User</title>
    <desc>Created with Sketch.</desc>
    <defs>
        <linearGradient x1="0%" y1="50%" x2="100%" y2="50%" id="linearGradient-1">
            <stop stop-color="#311CA0" offset="0%"></stop>
            <stop stop-color="#0A60C4" offset="100%"></stop>
        </linearGradient>
        <path d="M46.8275449,27.7446458 L44.1832335,25.1680395 C43.9532934,24.9439868 43.5796407,24.9439868 43.3497006,25.1680395 L32.7724551,35.446458 L26.6502994,29.4810544 C26.4203593,29.2570016 26.0467066,29.2570016 25.8167665,29.4810544 L23.1724551,32.0576606 C22.942515,32.2817133 22.942515,32.645799 23.1724551,32.8698517 L32.3413174,41.8319605 C32.6,42.0560132 32.9736527,42.0560132 33.2035928,41.8319605 L46.8275449,28.5568369 C47.057485,28.3327842 47.057485,27.9686985 46.8275449,27.7446458 Z" id="path-2"></path>
        <filter x="-40.9%" y="-46.1%" width="181.9%" height="215.7%" filterUnits="objectBoundingBox" id="filter-3">
            <feOffset dx="0" dy="2" in="SourceAlpha" result="shadowOffsetOuter1"></feOffset>
            <feGaussianBlur stdDeviation="3" in="shadowOffsetOuter1" result="shadowBlurOuter1"></feGaussianBlur>
            <feColorMatrix values="0 0 0 0 0   0 0 0 0 0   0 0 0 0 0  0 0 0 0.118149909 0" type="matrix" in="shadowBlurOuter1"></feColorMatrix>
        </filter>
    </defs>
    <g id="Page-1" stroke="none" stroke-width="1" fill="none" fill-rule="evenodd">
        <g id="EventoDetailView" transform="translate(-645.000000, -347.000000)">
            <g id="Group-5" transform="translate(200.000000, 323.000000)">
                <g id="Acreditados" transform="translate(425.000000, 0.000000)">
                    <g id="User" transform="translate(20.000000, 24.000000)">
                        <path d="M0,46 C0.00730063725,44.8094268 0.100553906,43.6210277 0.279,42.4444854 C0.5535,40.6782272 0.8955,38.4474063 2.142,36.4649654 C3.2445,34.6941076 4.59,33.8523752 6.075,32.9186501 C8.54393481,31.3575647 11.249171,30.2260217 14.0805,29.5701189 C14.8172831,29.290613 15.5383837,28.9696823 16.2405,28.6087961 C17.1405,28.148833 17.8605,26.653953 17.7435,25.5638405 C17.7063462,25.4132926 17.6389134,25.2723081 17.5455,25.1498738 C15.381,21.7599459 14.2155,17.9422524 13.635,13.8807784 C13.208834,11.4117017 13.2378317,8.88296525 13.7205,6.42477694 C14.4945,2.87846163 16.6815,0.693637017 19.9395,0.206076156 C21.7677101,-0.11512014 23.6402337,-0.0603902732 25.4475,0.367063233 C28.701,1.21799492 30.6495,3.63280107 31.1265,7.31710531 C31.7025,11.7603486 30.96,16.0196067 29.5065,20.1316766 C28.944,21.7231489 28.107,23.1950307 27.3915,24.7313074 C27.3219284,24.8458193 27.2645992,24.9676425 27.2205,25.0946782 C27,26.1801911 27.711,28.06144 28.629,28.5627998 C29.6247837,29.0681297 30.6479439,29.515019 31.6935,29.9012923 C34.2250709,30.8174517 36.6987918,31.892751 39.1005,33.1210339 C42.4125,34.8918917 44.0505,37.8954506 44.5995,41.7683397 C44.793,43.1482289 44.865,44.5281182 45,45.9770018 L0,46 Z" id="Path" fill="url(#linearGradient-1)"></path>
                        <g id="Path">
                            <use fill="black" fill-opacity="1" filter="url(#filter-3)" xlink:href="#path-2"></use>
                            <use fill="#00FF82" fill-rule="evenodd" xlink:href="#path-2"></use>
                        </g>
                    </g>
                </g>
            </g>
        </g>
    </g>
</svg>