<?xml version="1.0" encoding="UTF-8"?>
<svg width="95px" height="95px" viewBox="0 0 95 95" version="1.1" xmlns="http://www.w3.org/2000/svg" xmlns:xlink="http://www.w3.org/1999/xlink">
    <!-- Generator: Sketch 52.2 (67145) - http://www.bohemiancoding.com/sketch -->
    <title>Logo</title>
    <desc>Created with Sketch.</desc>
    <defs>
        <linearGradient x1="0%" y1="50%" x2="100%" y2="50%" id="linearGradient-1">
            <stop stop-color="#311CA0" offset="0%"></stop>
            <stop stop-color="#0A60C4" offset="100%"></stop>
        </linearGradient>
    </defs>
    <g id="Page-1" stroke="none" stroke-width="1" fill="none" fill-rule="evenodd">
        <g id="Personalizado-1" transform="translate(-37.000000, -344.000000)">
            <g id="Logo" transform="translate(37.000000, 344.000000)">
                <path d="M10,0 L85,0 C90.5228475,-1.01453063e-15 95,4.4771525 95,10 L95,85 C95,90.5228475 90.5228475,95 85,95 L10,95 C4.4771525,95 6.76353751e-16,90.5228475 0,85 L0,10 C-6.76353751e-16,4.4771525 4.4771525,1.01453063e-15 10,0 Z" id="Rectangle" fill="url(#linearGradient-1)" fill-rule="nonzero"></path>
                <g id="noun_QR-Code_772309" transform="translate(21.000000, 21.000000)" fill="#FFFFFF">
                    <g id="Group">
                        <path d="M41.4139535,43.8790698 L37.6546512,43.8790698 C36.2988372,43.8790698 35.1895349,44.9883721 35.1895349,46.344186 L35.1895349,50.1034884 C35.1895349,51.4593023 36.2988372,52.5686047 37.6546512,52.5686047 L41.4139535,52.5686047 C42.7697674,52.5686047 43.8790698,51.4593023 43.8790698,50.1034884 L43.8790698,46.344186 C43.8790698,44.9883721 42.7697674,43.8790698 41.4139535,43.8790698 Z" id="Path"></path>
                        <path d="M50.1034884,35.1895349 L46.344186,35.1895349 C44.9883721,35.1895349 43.8790698,36.2988372 43.8790698,37.6546512 L43.8790698,41.4139535 C43.8790698,42.7697674 44.9883721,43.8790698 46.344186,43.8790698 L50.1034884,43.8790698 C51.4593023,43.8790698 52.5686047,42.7697674 52.5686047,41.4139535 L52.5686047,37.6546512 C52.5686047,36.2988372 51.4593023,35.1895349 50.1034884,35.1895349 Z" id="Path"></path>
                        <path d="M50.1034884,17.8104651 L46.344186,17.8104651 C44.9883721,17.8104651 43.8790698,16.7011628 43.8790698,15.3453488 L43.8790698,11.5860465 C43.8790698,10.2302326 42.7697674,9.12093023 41.4139535,9.12093023 L37.6546512,9.12093023 C36.2988372,9.12093023 35.1895349,10.2302326 35.1895349,11.5860465 L35.1895349,15.3453488 C35.1895349,16.7011628 34.0802326,17.8104651 32.7244186,17.8104651 L28.9651163,17.8104651 C27.6093023,17.8104651 26.5,16.7011628 26.5,15.3453488 L26.5,11.5860465 C26.5,10.2302326 25.3906977,9.12093023 24.0348837,9.12093023 L20.2755814,9.12093023 C18.9197674,9.12093023 17.8104651,10.2302326 17.8104651,11.5860465 L17.8104651,17.8104651 L17.8104651,24.0348837 C17.8104651,25.3906977 16.7011628,26.5 15.3453488,26.5 L9.12093023,26.5 L2.89651163,26.5 C1.54069767,26.5 0.431395349,27.6093023 0.431395349,28.9651163 L0.431395349,35.1895349 L0.431395349,43.8790698 L0.431395349,50.1034884 C0.431395349,51.4593023 1.54069767,52.5686047 2.89651163,52.5686047 L9.12093023,52.5686047 L17.8104651,52.5686047 L24.0348837,52.5686047 C25.3906977,52.5686047 26.5,51.4593023 26.5,50.1034884 L26.5,46.344186 C26.5,44.9883721 27.6093023,43.8790698 28.9651163,43.8790698 L32.7244186,43.8790698 C34.0802326,43.8790698 35.1895349,42.7697674 35.1895349,41.4139535 L35.1895349,37.6546512 C35.1895349,36.2988372 34.0802326,35.1895349 32.7244186,35.1895349 L28.9651163,35.1895349 C27.6093023,35.1895349 26.5,34.0802326 26.5,32.7244186 L26.5,28.9651163 C26.5,27.6093023 27.6093023,26.5 28.9651163,26.5 L32.7244186,26.5 C34.0802326,26.5 35.1895349,27.6093023 35.1895349,28.9651163 L35.1895349,32.7244186 C35.1895349,34.0802326 36.2988372,35.1895349 37.6546512,35.1895349 L41.4139535,35.1895349 C42.7697674,35.1895349 43.8790698,34.0802326 43.8790698,32.7244186 L43.8790698,28.9651163 C43.8790698,27.6093023 44.9883721,26.5 46.344186,26.5 L50.1034884,26.5 C51.4593023,26.5 52.5686047,25.3906977 52.5686047,24.0348837 L52.5686047,20.2755814 C52.5686047,18.9197674 51.4593023,17.8104651 50.1034884,17.8104651 Z M20.5837209,44.1255814 C20.5837209,45.4813953 19.4744186,46.5906977 18.1186047,46.5906977 L8.8744186,46.5906977 C7.51860465,46.5906977 6.40930233,45.4813953 6.40930233,44.1255814 L6.40930233,34.8813953 C6.40930233,33.5255814 7.51860465,32.4162791 8.8744186,32.4162791 L18.1186047,32.4162791 C19.4744186,32.4162791 20.5837209,33.5255814 20.5837209,34.8813953 L20.5837209,44.1255814 Z" id="Shape" fill-rule="nonzero"></path>
                        <path d="M14.4825581,36.0523256 L12.4488372,36.0523256 C11.0930233,36.0523256 9.98372093,37.1616279 9.98372093,38.5174419 L9.98372093,40.5511628 C9.98372093,41.9069767 11.0930233,43.0162791 12.4488372,43.0162791 L14.4825581,43.0162791 C15.8383721,43.0162791 16.9476744,41.9069767 16.9476744,40.5511628 L16.9476744,38.5174419 C16.9476744,37.1616279 15.8383721,36.0523256 14.4825581,36.0523256 Z" id="Path"></path>
                        <path d="M50.1034884,0.431395349 L46.344186,0.431395349 C44.9883721,0.431395349 43.8790698,1.54069767 43.8790698,2.89651163 L43.8790698,6.65581395 C43.8790698,8.01162791 44.9883721,9.12093023 46.344186,9.12093023 L50.1034884,9.12093023 C51.4593023,9.12093023 52.5686047,8.01162791 52.5686047,6.65581395 L52.5686047,2.89651163 C52.5686047,1.54069767 51.4593023,0.431395349 50.1034884,0.431395349 Z" id="Path"></path>
                        <path d="M28.9651163,9.12093023 L32.7244186,9.12093023 C34.0802326,9.12093023 35.1895349,8.01162791 35.1895349,6.65581395 L35.1895349,2.89651163 C35.1895349,1.54069767 34.0802326,0.431395349 32.7244186,0.431395349 L28.9651163,0.431395349 C27.6093023,0.431395349 26.5,1.54069767 26.5,2.89651163 L26.5,6.65581395 C26.5,8.01162791 27.6093023,9.12093023 28.9651163,9.12093023 Z" id="Path"></path>
                        <path d="M2.89651163,17.8104651 L6.65581395,17.8104651 C8.01162791,17.8104651 9.12093023,16.7011628 9.12093023,15.3453488 L9.12093023,11.5860465 C9.12093023,10.2302326 10.2302326,9.12093023 11.5860465,9.12093023 L15.3453488,9.12093023 C16.7011628,9.12093023 17.8104651,8.01162791 17.8104651,6.65581395 L17.8104651,2.89651163 C17.8104651,1.54069767 16.7011628,0.431395349 15.3453488,0.431395349 L9.12093023,0.431395349 L2.89651163,0.431395349 C1.54069767,0.431395349 0.431395349,1.54069767 0.431395349,2.89651163 L0.431395349,9.12093023 L0.431395349,15.3453488 C0.431395349,16.7011628 1.54069767,17.8104651 2.89651163,17.8104651 Z" id="Path"></path>
                    </g>
                </g>
            </g>
        </g>
    </g>
</svg>