<?xml version="1.0" encoding="UTF-8"?>
<svg width="150px" height="35px" viewBox="0 0 150 35" version="1.1" xmlns="http://www.w3.org/2000/svg" xmlns:xlink="http://www.w3.org/1999/xlink">
    <!-- Generator: Sketch 52.2 (67145) - http://www.bohemiancoding.com/sketch -->
    <title>Logo+txt</title>
    <desc>Created with Sketch.</desc>
    <defs>
        <linearGradient x1="0%" y1="50%" x2="100%" y2="50%" id="linearGradient-1">
            <stop stop-color="#311CA0" offset="0%"></stop>
            <stop stop-color="#0A60C4" offset="100%"></stop>
        </linearGradient>
    </defs>
    <g id="Page-1" stroke="none" stroke-width="1" fill="none" fill-rule="evenodd">
        <g id="Artboard" transform="translate(-25.000000, -21.000000)">
            <g id="Logo+txt" transform="translate(25.000000, 21.000000)">
                <text id="Acreditador" fill="#000000" font-family="COCOGOOSE" font-size="14" font-weight="normal" line-spacing="20">
                    <tspan x="44" y="22">ACREDITADOR</tspan>
                </text>
                <g id="LogoQR" fill="url(#linearGradient-1)">
                    <path d="M28.9116279,28.9767442 L26.2872093,28.9767442 C25.3406977,28.9767442 24.5662791,29.7093023 24.5662791,30.6046512 L24.5662791,33.0872093 C24.5662791,33.9825581 25.3406977,34.7151163 26.2872093,34.7151163 L28.9116279,34.7151163 C29.8581395,34.7151163 30.6325581,33.9825581 30.6325581,33.0872093 L30.6325581,30.6046512 C30.6325581,29.7093023 29.8581395,28.9767442 28.9116279,28.9767442 Z" id="Path"></path>
                    <path d="M34.977907,23.2383721 L32.3534884,23.2383721 C31.4069767,23.2383721 30.6325581,23.9709302 30.6325581,24.8662791 L30.6325581,27.3488372 C30.6325581,28.244186 31.4069767,28.9767442 32.3534884,28.9767442 L34.977907,28.9767442 C35.9244186,28.9767442 36.6988372,28.244186 36.6988372,27.3488372 L36.6988372,24.8662791 C36.6988372,23.9709302 35.9244186,23.2383721 34.977907,23.2383721 Z" id="Path"></path>
                    <path d="M34.977907,11.7616279 L32.3534884,11.7616279 C31.4069767,11.7616279 30.6325581,11.0290698 30.6325581,10.1337209 L30.6325581,7.65116279 C30.6325581,6.75581395 29.8581395,6.02325581 28.9116279,6.02325581 L26.2872093,6.02325581 C25.3406977,6.02325581 24.5662791,6.75581395 24.5662791,7.65116279 L24.5662791,10.1337209 C24.5662791,11.0290698 23.7918605,11.7616279 22.8453488,11.7616279 L20.2209302,11.7616279 C19.2744186,11.7616279 18.5,11.0290698 18.5,10.1337209 L18.5,7.65116279 C18.5,6.75581395 17.7255814,6.02325581 16.7790698,6.02325581 L14.1546512,6.02325581 C13.2081395,6.02325581 12.4337209,6.75581395 12.4337209,7.65116279 L12.4337209,11.7616279 L12.4337209,15.872093 C12.4337209,16.7674419 11.6593023,17.5 10.7127907,17.5 L6.36744186,17.5 L2.02209302,17.5 C1.0755814,17.5 0.301162791,18.2325581 0.301162791,19.127907 L0.301162791,23.2383721 L0.301162791,28.9767442 L0.301162791,33.0872093 C0.301162791,33.9825581 1.0755814,34.7151163 2.02209302,34.7151163 L6.36744186,34.7151163 L12.4337209,34.7151163 L16.7790698,34.7151163 C17.7255814,34.7151163 18.5,33.9825581 18.5,33.0872093 L18.5,30.6046512 C18.5,29.7093023 19.2744186,28.9767442 20.2209302,28.9767442 L22.8453488,28.9767442 C23.7918605,28.9767442 24.5662791,28.244186 24.5662791,27.3488372 L24.5662791,24.8662791 C24.5662791,23.9709302 23.7918605,23.2383721 22.8453488,23.2383721 L20.2209302,23.2383721 C19.2744186,23.2383721 18.5,22.505814 18.5,21.6104651 L18.5,19.127907 C18.5,18.2325581 19.2744186,17.5 20.2209302,17.5 L22.8453488,17.5 C23.7918605,17.5 24.5662791,18.2325581 24.5662791,19.127907 L24.5662791,21.6104651 C24.5662791,22.505814 25.3406977,23.2383721 26.2872093,23.2383721 L28.9116279,23.2383721 C29.8581395,23.2383721 30.6325581,22.505814 30.6325581,21.6104651 L30.6325581,19.127907 C30.6325581,18.2325581 31.4069767,17.5 32.3534884,17.5 L34.977907,17.5 C35.9244186,17.5 36.6988372,16.7674419 36.6988372,15.872093 L36.6988372,13.3895349 C36.6988372,12.494186 35.9244186,11.7616279 34.977907,11.7616279 Z M14.3697674,29.1395349 C14.3697674,30.0348837 13.5953488,30.7674419 12.6488372,30.7674419 L6.19534884,30.7674419 C5.24883721,30.7674419 4.4744186,30.0348837 4.4744186,29.1395349 L4.4744186,23.0348837 C4.4744186,22.1395349 5.24883721,21.4069767 6.19534884,21.4069767 L12.6488372,21.4069767 C13.5953488,21.4069767 14.3697674,22.1395349 14.3697674,23.0348837 L14.3697674,29.1395349 Z" id="Shape" fill-rule="nonzero"></path>
                    <path d="M10.1104651,23.8081395 L8.69069767,23.8081395 C7.74418605,23.8081395 6.96976744,24.5406977 6.96976744,25.4360465 L6.96976744,26.7790698 C6.96976744,27.6744186 7.74418605,28.4069767 8.69069767,28.4069767 L10.1104651,28.4069767 C11.0569767,28.4069767 11.8313953,27.6744186 11.8313953,26.7790698 L11.8313953,25.4360465 C11.8313953,24.5406977 11.0569767,23.8081395 10.1104651,23.8081395 Z" id="Path"></path>
                    <path d="M34.977907,0.284883721 L32.3534884,0.284883721 C31.4069767,0.284883721 30.6325581,1.01744186 30.6325581,1.9127907 L30.6325581,4.39534884 C30.6325581,5.29069767 31.4069767,6.02325581 32.3534884,6.02325581 L34.977907,6.02325581 C35.9244186,6.02325581 36.6988372,5.29069767 36.6988372,4.39534884 L36.6988372,1.9127907 C36.6988372,1.01744186 35.9244186,0.284883721 34.977907,0.284883721 Z" id="Path"></path>
                    <path d="M20.2209302,6.02325581 L22.8453488,6.02325581 C23.7918605,6.02325581 24.5662791,5.29069767 24.5662791,4.39534884 L24.5662791,1.9127907 C24.5662791,1.01744186 23.7918605,0.284883721 22.8453488,0.284883721 L20.2209302,0.284883721 C19.2744186,0.284883721 18.5,1.01744186 18.5,1.9127907 L18.5,4.39534884 C18.5,5.29069767 19.2744186,6.02325581 20.2209302,6.02325581 Z" id="Path"></path>
                    <path d="M2.02209302,11.7616279 L4.64651163,11.7616279 C5.59302326,11.7616279 6.36744186,11.0290698 6.36744186,10.1337209 L6.36744186,7.65116279 C6.36744186,6.75581395 7.14186047,6.02325581 8.08837209,6.02325581 L10.7127907,6.02325581 C11.6593023,6.02325581 12.4337209,5.29069767 12.4337209,4.39534884 L12.4337209,1.9127907 C12.4337209,1.01744186 11.6593023,0.284883721 10.7127907,0.284883721 L6.36744186,0.284883721 L2.02209302,0.284883721 C1.0755814,0.284883721 0.301162791,1.01744186 0.301162791,1.9127907 L0.301162791,6.02325581 L0.301162791,10.1337209 C0.301162791,11.0290698 1.0755814,11.7616279 2.02209302,11.7616279 Z" id="Path"></path>
                </g>
            </g>
        </g>
    </g>
</svg>