<?xml version="1.0" encoding="UTF-8"?>
<svg width="13px" height="13px" viewBox="0 0 13 13" version="1.1" xmlns="http://www.w3.org/2000/svg" xmlns:xlink="http://www.w3.org/1999/xlink">
    <!-- Generator: Sketch 52.2 (67145) - http://www.bohemiancoding.com/sketch -->
    <title>Group</title>
    <desc>Created with Sketch.</desc>
    <g id="Page-1" stroke="none" stroke-width="1" fill="none" fill-rule="evenodd">
        <g id="EventoDetailView" transform="translate(-204.000000, -245.000000)" fill="#000000">
            <g id="Group-5" transform="translate(200.000000, 242.000000)">
                <g id="Group-2" transform="translate(4.000000, 0.000000)">
                    <g id="noun_event_2080422" transform="translate(0.000000, 3.000000)">
                        <g id="Group">
                            <path d="M11.05,0.960869565 L9.709375,0.960869565 L9.709375,0.466304348 C9.709375,0.254347826 9.546875,0.0706521739 9.33020833,0.0706521739 L8.20625,0.0706521739 C8.003125,0.0706521739 7.82708333,0.240217391 7.82708333,0.466304348 L7.82708333,0.960869565 L5.14583333,0.960869565 L5.14583333,0.466304348 C5.14583333,0.254347826 4.98333333,0.0706521739 4.76666667,0.0706521739 L3.65625,0.0706521739 C3.453125,0.0706521739 3.27708333,0.240217391 3.27708333,0.466304348 L3.27708333,0.960869565 L1.93645833,0.960869565 C0.907291667,0.960869565 0.0677083333,1.83695652 0.0677083333,2.925 L0.0677083333,10.9652174 C0.0677083333,12.0391304 0.907291667,12.9293478 1.95,12.9293478 L11.0635417,12.9293478 C12.0927083,12.9293478 12.9458333,12.0532609 12.9458333,10.9652174 L12.9458333,2.925 C12.9322917,1.83695652 12.0927083,0.960869565 11.05,0.960869565 Z M11.3208333,10.9652174 C11.3208333,11.1206522 11.1989583,11.2478261 11.05,11.2478261 L1.95,11.2478261 C1.80104167,11.2478261 1.67916667,11.1206522 1.67916667,10.9652174 L1.67916667,2.925 C1.67916667,2.76956522 1.80104167,2.6423913 1.95,2.6423913 L3.290625,2.6423913 L3.290625,3.13695652 C3.290625,3.34891304 3.453125,3.5326087 3.66979167,3.5326087 L4.79375,3.5326087 C4.996875,3.5326087 5.17291667,3.36304348 5.17291667,3.13695652 L5.17291667,2.6423913 L7.85416667,2.6423913 L7.85416667,3.13695652 C7.85416667,3.34891304 8.01666667,3.5326087 8.23333333,3.5326087 L9.34375,3.5326087 C9.546875,3.5326087 9.72291667,3.36304348 9.72291667,3.13695652 L9.72291667,2.6423913 L11.0635417,2.6423913 C11.2125,2.6423913 11.334375,2.76956522 11.334375,2.925 L11.334375,10.9652174 L11.3208333,10.9652174 Z" id="Shape" fill-rule="nonzero"></path>
                            <path d="M7.69166667,5.68043478 L6.06666667,7.37608696 L5.47083333,6.75434783 C5.159375,6.42934783 4.64479167,6.42934783 4.33333333,6.75434783 C4.021875,7.07934783 4.021875,7.61630435 4.33333333,7.94130435 L5.49791667,9.15652174 C5.646875,9.31195652 5.85,9.39673913 6.06666667,9.39673913 C6.28333333,9.39673913 6.48645833,9.31195652 6.63541667,9.15652174 L8.82916667,6.8673913 C9.140625,6.5423913 9.140625,6.00543478 8.82916667,5.68043478 C8.51770833,5.35543478 8.003125,5.35543478 7.69166667,5.68043478 Z" id="Path"></path>
                        </g>
                    </g>
                </g>
            </g>
        </g>
    </g>
</svg>