<?xml version="1.0" encoding="UTF-8"?>
<svg width="10px" height="13px" viewBox="0 0 10 13" version="1.1" xmlns="http://www.w3.org/2000/svg" xmlns:xlink="http://www.w3.org/1999/xlink">
    <!-- Generator: Sketch 52.2 (67145) - http://www.bohemiancoding.com/sketch -->
    <title>noun_Map_1694983</title>
    <desc>Created with Sketch.</desc>
    <g id="Page-1" stroke="none" stroke-width="1" fill="none" fill-rule="evenodd">
        <g id="EventoDetailView" transform="translate(-534.000000, -245.000000)" fill="#000000" fill-rule="nonzero">
            <g id="Group-5" transform="translate(200.000000, 242.000000)">
                <g id="Group-4" transform="translate(334.000000, 0.000000)">
                    <g id="noun_Map_1694983" transform="translate(-0.000000, 3.000000)">
                        <path d="M4.67869873,0 C2.16710572,0 0.123493656,2.0435962 0.123493656,4.55520507 C0.123493656,6.98619873 4.29130127,12.6541797 4.4707019,12.8933911 C4.52010255,12.9609937 4.59549683,13 4.67869873,13 C4.76190062,13 4.83989745,12.9609937 4.8892981,12.8933911 C5.0660962,12.6541797 9.23650634,6.98619873 9.23650634,4.55520507 C9.23650634,2.0435962 7.19289428,0 4.67869873,0 Z M4.67869873,6.76 C3.46450317,6.76 2.47650634,5.77198731 2.47650634,4.55520507 C2.47650634,3.34099366 3.46450317,2.35301269 4.67869873,2.35301269 C5.89289428,2.35301269 6.88349366,3.34099366 6.88349366,4.55520507 C6.88349366,5.77198731 5.89289428,6.76 4.67869873,6.76 Z" id="Shape"></path>
                    </g>
                </g>
            </g>
        </g>
    </g>
</svg>