<?xml version="1.0" encoding="UTF-8"?>
<svg width="45px" height="46px" viewBox="0 0 45 46" version="1.1" xmlns="http://www.w3.org/2000/svg" xmlns:xlink="http://www.w3.org/1999/xlink">
    <!-- Generator: Sketch 52.2 (67145) - http://www.bohemiancoding.com/sketch -->
    <title>User</title>
    <desc>Created with Sketch.</desc>
    <defs>
        <linearGradient x1="0%" y1="50%" x2="100%" y2="50%" id="linearGradient-1">
            <stop stop-color="#311CA0" offset="0%"></stop>
            <stop stop-color="#0A60C4" offset="100%"></stop>
        </linearGradient>
    </defs>
    <g id="Page-1" stroke="none" stroke-width="1" fill="none" fill-rule="evenodd">
        <g id="EventoDetailView" transform="translate(-1069.000000, -347.000000)">
            <g id="Group-5" transform="translate(200.000000, 323.000000)">
                <g id="tile_ausente" transform="translate(849.000000, 0.000000)">
                    <g id="User" transform="translate(20.000000, 24.000000)">
                        <path d="M0,46 C0.00730063725,44.8094268 0.100553906,43.6210277 0.279,42.4444854 C0.5535,40.6782272 0.8955,38.4474063 2.142,36.4649654 C3.2445,34.6941076 4.59,33.8523752 6.075,32.9186501 C8.54393481,31.3575647 11.249171,30.2260217 14.0805,29.5701189 C14.8172831,29.290613 15.5383837,28.9696823 16.2405,28.6087961 C17.1405,28.148833 17.8605,26.653953 17.7435,25.5638405 C17.7063462,25.4132926 17.6389134,25.2723081 17.5455,25.1498738 C15.381,21.7599459 14.2155,17.9422524 13.635,13.8807784 C13.208834,11.4117017 13.2378317,8.88296525 13.7205,6.42477694 C14.4945,2.87846163 16.6815,0.693637017 19.9395,0.206076156 C21.7677101,-0.11512014 23.6402337,-0.0603902732 25.4475,0.367063233 C28.701,1.21799492 30.6495,3.63280107 31.1265,7.31710531 C31.7025,11.7603486 30.96,16.0196067 29.5065,20.1316766 C28.944,21.7231489 28.107,23.1950307 27.3915,24.7313074 C27.3219284,24.8458193 27.2645992,24.9676425 27.2205,25.0946782 C27,26.1801911 27.711,28.06144 28.629,28.5627998 C29.6247837,29.0681297 30.6479439,29.515019 31.6935,29.9012923 C34.2250709,30.8174517 36.6987918,31.892751 39.1005,33.1210339 C42.4125,34.8918917 44.0505,37.8954506 44.5995,41.7683397 C44.793,43.1482289 44.865,44.5281182 45,45.9770018 L0,46 Z" id="Path" fill="url(#linearGradient-1)"></path>
                        <path d="M36.5,25 C31.8055796,25 28,28.8055796 28,33.5 C28,38.1944204 31.8055796,42 36.5,42 C41.1944204,42 45,38.1944204 45,33.5 C44.9944505,28.8078802 41.1921198,25.0055495 36.5,25 Z M39.4347156,34.6259479 L36.010545,34.6259479 C35.7966849,34.6239409 35.5998164,34.5090371 35.492891,34.3238152 L33.2772512,30.3658768 C33.1718282,30.1773388 33.1749972,29.9468799 33.2855644,29.7613119 C33.3961316,29.5757439 33.5972993,29.463259 33.8132895,29.466229 C34.0292798,29.469199 34.2272784,29.5871729 34.3327014,29.7757109 L36.3731043,33.4234597 L39.4327014,33.4234597 C39.766428,33.4234597 40.0369668,33.6939986 40.0369668,34.0277251 C40.0369668,34.3614517 39.766428,34.6319905 39.4327014,34.6319905 L39.4347156,34.6259479 Z" id="Shape" fill="#FFD400" fill-rule="nonzero"></path>
                    </g>
                </g>
            </g>
        </g>
    </g>
</svg>